<svg width="298" height="43" viewBox="0 0 298 43" fill="none" xmlns="http://www.w3.org/2000/svg">
<path d="M39.8145 42.0533H12.6806C7.83865 41.9488 3.45661 39.1635 1.29596 34.8201C0.627803 33.4622 0.211293 31.9999 0.0637782 30.5028C0.00303702 29.8499 -0.0143176 29.1884 0.0117144 28.5356C0.133197 26.2464 0.862091 24.0268 2.12898 22.1206C3.40454 20.197 5.17471 18.6563 7.23992 17.6466C7.34404 17.5857 7.54362 17.5335 7.50024 17.3681C7.2833 15.6969 7.33537 13.9996 7.65643 12.3458C8.15971 9.87376 9.26173 7.56715 10.8584 5.62611C13.9995 1.84847 18.7287 -0.231835 23.6227 0.0205875C26.1998 0.151151 28.7163 0.908417 30.929 2.24016C33.0723 3.53709 34.8772 5.33016 36.1788 7.4801C36.4478 7.90661 36.6473 8.36793 36.9077 8.79444C40.2311 6.53134 44.6738 6.84469 47.6502 9.55171C49.2468 11.0227 50.2273 13.0421 50.4009 15.2095C50.505 16.6979 50.2187 18.1863 49.5592 19.5267C49.4811 19.6747 49.4117 19.814 49.3509 19.962C50.0278 20.2057 50.6872 20.4929 51.3293 20.8237C53.5594 22.0249 55.3383 23.9398 56.3709 26.2638C57.3948 28.6052 57.5857 31.2165 56.9175 33.6885C56.4229 35.5425 55.4597 37.2311 54.1148 38.5977C52.0322 40.7389 49.1947 41.9923 46.2184 42.0707C44.0838 42.062 41.9492 42.062 39.8145 42.062V42.0533ZM45.4635 31.9216C45.5763 32.1217 45.6631 32.3307 45.7498 32.5483C46.5829 34.2021 48.5873 34.8723 50.2447 34.0454C50.8608 33.7407 51.3641 33.2446 51.6851 32.644C52.171 31.7388 52.1971 30.6594 51.7632 29.7281C51.286 28.7271 50.3488 28.0221 49.2555 27.8567C48.5786 27.7609 47.8845 27.8567 47.251 28.1352C47.1556 27.317 47.1989 26.4814 47.1382 25.6458C46.9213 25.8373 46.739 26.0723 46.5395 26.2725C46.4267 26.0984 46.3312 25.9069 46.2531 25.7154C45.2118 23.4872 44.1966 21.2328 43.2334 18.9697C43.1466 18.8304 43.3028 18.7347 43.407 18.665C44.1011 18.2211 44.5958 17.5248 44.7953 16.724C44.9776 15.9319 44.8734 15.0963 44.5003 14.3738C44.0057 13.4686 43.1206 12.8506 42.1054 12.6852C41.2463 12.546 40.3699 12.7462 39.641 13.2336C39.1985 13.5644 38.834 13.9822 38.5563 14.4696C37.975 13.8603 37.437 13.1988 36.8643 12.5721C36.7775 12.8419 36.8209 13.1378 36.7601 13.4164C36.6734 13.399 36.5953 13.3816 36.5172 13.3555C32.0136 11.6407 27.5014 9.97821 22.9632 8.35923C22.8417 8.33312 22.7289 8.24607 22.7897 8.10681C23.0066 6.80988 22.4339 5.51295 21.3319 4.7992C20.4034 4.20732 19.2493 4.09416 18.2254 4.51197C17.5659 4.7818 17.0106 5.26053 16.6374 5.86982C16.0561 6.8621 16.0214 8.0894 16.5594 9.10779C16.8717 9.63005 17.2969 10.074 17.8089 10.4047C17.1407 10.9531 16.4205 11.4318 15.7697 12.0063C16.0821 12.0324 16.3858 12.0846 16.6895 12.1456C14.121 17.0112 11.5265 21.8595 8.91464 26.699C8.87125 26.847 8.72374 26.8122 8.61093 26.7774C7.22256 26.4031 5.74742 26.9514 4.94043 28.1526C4.30698 29.1101 4.22021 30.3287 4.7235 31.3645C5.53916 33.027 7.54362 33.7233 9.20099 32.9051C9.40924 32.8007 9.60882 32.6788 9.79105 32.5396C10.4939 31.9825 10.9538 31.1643 11.0493 30.2765C11.7174 30.7639 12.3335 31.3384 12.9843 31.8606C12.9669 31.5473 12.9062 31.2426 12.9149 30.938C13.1665 30.9641 13.4095 31.0076 13.6611 31.0598C23.9524 32.9574 34.478 33.2707 44.8647 31.9912C45.0383 31.9738 45.2032 31.9303 45.3767 31.9303C45.4114 31.9303 45.4374 31.9303 45.4722 31.9303L45.4635 31.9216ZM6.40689 32.2088C5.45239 31.6865 4.93175 30.6159 5.11397 29.5366C5.37429 28.1091 6.72796 27.169 8.15103 27.4302C9.02744 27.5869 9.76501 28.1874 10.1034 29.0143C10.4592 29.8935 10.2943 30.9032 9.67824 31.6256C9.17496 32.2088 8.43739 32.5396 7.66511 32.5396C7.22256 32.5396 6.79737 32.4264 6.41557 32.2175L6.40689 32.2088ZM7.19653 28.3615C6.43293 28.5791 5.93832 29.3103 5.99906 30.1024C6.07716 30.938 6.74531 31.5908 7.57833 31.643C8.43739 31.6952 9.20967 31.0947 9.36586 30.2416C9.46999 29.5888 9.19231 28.936 8.63696 28.5791C8.35061 28.3963 8.02087 28.2919 7.68246 28.2919C7.51759 28.2919 7.35272 28.318 7.19653 28.3615ZM27.1544 31.9564C22.4339 31.7214 17.7308 31.1556 13.0797 30.259C13.2273 29.9892 13.3921 29.7368 13.5657 29.4844C12.7413 29.5975 11.9257 29.8238 11.1013 29.9544C10.9972 29.8412 11.0493 29.6323 11.0059 29.4757C10.9972 29.2058 10.841 28.9447 10.8323 28.6836C13.1405 27.3867 15.5094 26.1855 17.913 25.0626C23.4058 22.4862 29.0894 20.3536 34.9205 18.665C35.5193 18.4996 36.1093 18.3082 36.7167 18.1776C36.7341 18.4474 36.6907 18.7173 36.7167 18.9871C37.3242 18.4474 37.9142 17.8816 38.5216 17.342C38.8427 17.9339 39.3199 18.43 39.8926 18.7869C40.6736 19.2134 41.576 19.3265 42.4438 19.1176C42.5566 19.0654 42.6 19.2047 42.6434 19.2743C43.2768 20.7279 43.9016 22.1989 44.5697 23.6438C45.0123 24.6448 45.5069 25.6197 45.9321 26.6294C45.6197 26.6903 45.2986 26.7251 44.9862 26.7774C45.1337 26.9253 45.3073 27.0559 45.4808 27.169C45.9841 27.5433 46.5134 27.8915 46.9994 28.2919C46.2531 28.7619 45.7238 29.5018 45.5155 30.3635C45.4288 30.642 45.4808 30.9554 45.3941 31.2339C42.869 31.5908 40.3178 31.7997 37.7667 31.939C35.8837 32.0347 34.0008 32.0869 32.1178 32.0869C30.4691 32.0869 28.8204 32.0434 27.1804 31.9564H27.1544ZM10.3985 27.9959C10.1295 27.6565 9.8084 27.3605 9.46131 27.1168C11.4397 23.4175 13.4355 19.7356 15.3966 16.0276C16.03 14.8439 16.6461 13.6427 17.2969 12.4589C17.5312 12.6504 17.7481 12.8593 17.9738 13.0508C17.9738 12.2065 17.9651 11.3622 17.9911 10.5179C18.5551 10.7616 19.1625 10.8747 19.7786 10.8312C20.9674 10.7268 22.0087 10.013 22.538 8.93371C22.7636 8.98593 22.9806 9.06427 23.1975 9.15131C26.4428 10.3003 29.6708 11.4927 32.8987 12.7026C34.1049 13.164 35.3197 13.5992 36.5172 14.0866C36.3176 14.339 36.0746 14.5566 35.8751 14.8091C36.7341 14.7916 37.5932 14.7046 38.4522 14.6959C38.3307 15.0702 38.2526 15.4619 38.2353 15.8623C38.2353 16.2453 38.2873 16.6369 38.3915 17.0112C37.5845 16.9068 36.7862 16.7588 35.9792 16.6456C36.1788 16.9155 36.387 17.194 36.5866 17.4638C36.4651 17.5422 36.3349 17.5944 36.1961 17.6205C27.3192 20.0664 18.7547 23.5481 10.6848 28.0047C10.6241 28.0395 10.5633 28.0656 10.4939 28.0743C10.4505 28.0743 10.4071 28.0482 10.3898 28.0047L10.3985 27.9959Z" fill="#0C7FF2"/>
<path d="M96.7916 33.4524H81.0423L78.04 40.7466H69.9961L85.112 6.73047H92.8608L108.029 40.7466H99.794L96.7916 33.4524ZM94.3186 27.4726L88.9387 14.4511L83.5587 27.4726H94.3099H94.3186Z" fill="#0C7FF2"/>
<path d="M140.977 19.0652C140.977 26.6466 135.311 31.3643 126.251 31.3643H119.422V40.7475H111.578V6.72266H126.26C135.319 6.72266 140.986 11.4403 140.986 19.0652H140.977ZM133.028 19.0652C133.028 15.3224 130.607 13.1377 125.809 13.1377H119.414V24.9493H125.809C130.607 24.9493 133.028 22.7645 133.028 19.0652Z" fill="#0C7FF2"/>
<path d="M146.543 6.72266H154.387V40.7387H146.543V6.72266Z" fill="#0C7FF2"/>
<path d="M193.3 40.7387L193.248 20.3274L183.269 37.1439H179.728L169.793 20.7626V40.7387H162.426V6.72266H168.916L181.611 27.8652L194.115 6.72266H200.563L200.658 40.7387H193.291H193.3Z" fill="#0C7FF2"/>
<path d="M231.233 25.8194V40.7384H224.161V37.483C222.755 39.868 220.039 41.1301 216.212 41.1301C210.104 41.1301 206.477 37.7267 206.477 33.2092C206.477 28.6917 209.722 25.3841 217.67 25.3841H223.675C223.675 22.1288 221.74 20.2312 217.67 20.2312C214.911 20.2312 212.047 21.1539 210.164 22.6597L207.448 17.3589C210.303 15.3221 214.52 14.1992 218.686 14.1992C226.634 14.1992 231.233 17.8898 231.233 25.8107V25.8194ZM223.675 32.4781V29.8059H218.495C214.954 29.8059 213.844 31.1202 213.844 32.8698C213.844 34.7673 215.44 36.0294 218.104 36.0294C220.621 36.0294 222.807 34.863 223.675 32.4781Z" fill="#0C7FF2"/>
<path d="M254.882 39.4755C253.329 40.5897 251.056 41.1293 248.73 41.1293C242.578 41.1293 238.994 37.9697 238.994 31.7462V21.0052H234.977V15.1733H238.994V8.81055H246.552V15.1733H253.043V21.0052H246.552V31.6504C246.552 33.8874 247.767 35.0973 249.797 35.0973C250.908 35.0973 252.027 34.7578 252.852 34.1224L254.882 39.4668V39.4755Z" fill="#0C7FF2"/>
<path d="M258.223 6.72244C258.223 4.33748 260.114 2.49219 262.926 2.49219C265.737 2.49219 267.629 4.24174 267.629 6.57447C267.629 9.09869 265.737 10.944 262.926 10.944C260.114 10.944 258.223 9.09869 258.223 6.71373V6.72244ZM259.142 14.5998H266.7V40.7472H259.142V14.5998Z" fill="#0C7FF2"/>
<path d="M271.785 27.6734C271.785 19.8048 277.842 14.208 286.32 14.208C291.795 14.208 296.108 16.593 297.999 20.8667L292.142 24.0264C290.736 21.5457 288.654 20.4315 286.276 20.4315C282.45 20.4315 279.447 23.1037 279.447 27.6734C279.447 32.2432 282.45 34.9153 286.276 34.9153C288.654 34.9153 290.736 33.8447 292.142 31.3205L297.999 34.5237C296.108 38.7017 291.795 41.1302 286.32 41.1302C277.842 41.1302 271.785 35.5421 271.785 27.6734Z" fill="#0C7FF2"/>
</svg>
